<svg enable-background="new 0 0 492 492" viewBox="0 0 492 492" xmlns="http://www.w3.org/2000/svg"><g id="Master_Layer_2"/><g id="Layer_1"><g><g clip-rule="evenodd" fill="#fce340" fill-rule="evenodd"><path d="m94.127 220.728 6.392 12.952c.492.997 1.444 1.689 2.544 1.848l14.294 2.077c2.771.403 3.878 3.809 1.873 5.764l-10.343 10.082c-.796.776-1.16 1.895-.972 2.991l2.442 14.236c.473 2.76-2.424 4.865-4.903 3.562l-12.785-6.721c-.984-.517-2.16-.517-3.145 0l-12.784 6.721c-2.479 1.303-5.376-.802-4.903-3.562l2.442-14.236c.188-1.096-.175-2.215-.972-2.991l-10.343-10.082c-2.006-1.955-.899-5.361 1.873-5.764l14.294-2.077c1.101-.16 2.052-.851 2.544-1.848l6.392-12.952c1.24-2.512 4.821-2.512 6.06 0z"/><path d="m171.709 220.728 6.392 12.952c.492.997 1.444 1.689 2.544 1.848l14.294 2.077c2.771.403 3.878 3.809 1.873 5.764l-10.343 10.082c-.796.776-1.16 1.895-.972 2.991l2.442 14.236c.473 2.76-2.424 4.865-4.903 3.562l-12.785-6.721c-.984-.517-2.161-.517-3.145 0l-12.785 6.721c-2.479 1.303-5.376-.802-4.903-3.562l2.442-14.236c.188-1.096-.176-2.215-.972-2.991l-10.343-10.082c-2.005-1.955-.899-5.361 1.873-5.764l14.294-2.077c1.101-.16 2.052-.851 2.544-1.848l6.392-12.952c1.24-2.512 4.821-2.512 6.061 0z"/><path d="m249.29 220.728 6.393 12.952c.492.997 1.444 1.689 2.544 1.848l14.294 2.077c2.771.403 3.878 3.809 1.873 5.764l-10.343 10.082c-.796.776-1.16 1.895-.972 2.991l2.442 14.236c.473 2.76-2.424 4.865-4.903 3.562l-12.785-6.721c-.984-.517-2.161-.517-3.145 0l-12.785 6.721c-2.479 1.303-5.376-.802-4.903-3.562l2.442-14.236c.188-1.096-.175-2.215-.972-2.991l-10.343-10.082c-2.006-1.955-.899-5.361 1.873-5.764l14.294-2.077c1.101-.16 2.052-.851 2.544-1.848l6.392-12.952c1.239-2.512 4.821-2.512 6.06 0z"/><path d="m326.871 220.728 6.392 12.952c.492.997 1.444 1.689 2.544 1.848l14.294 2.077c2.771.403 3.878 3.809 1.873 5.764l-10.343 10.082c-.796.776-1.16 1.895-.972 2.991l2.442 14.236c.473 2.76-2.424 4.865-4.903 3.562l-12.785-6.721c-.984-.517-2.161-.517-3.145 0l-12.785 6.721c-2.479 1.303-5.376-.802-4.903-3.562l2.442-14.236c.188-1.096-.176-2.215-.972-2.991l-10.343-10.082c-2.006-1.955-.899-5.361 1.873-5.764l14.294-2.077c1.101-.16 2.052-.851 2.544-1.848l6.392-12.952c1.241-2.512 4.822-2.512 6.061 0z"/><path d="m404.453 220.728 6.392 12.952c.492.997 1.444 1.689 2.544 1.848l14.294 2.077c2.771.403 3.878 3.809 1.873 5.764l-10.343 10.082c-.796.776-1.16 1.895-.972 2.991l2.442 14.236c.473 2.76-2.424 4.865-4.903 3.562l-12.785-6.721c-.984-.517-2.161-.517-3.145 0l-12.785 6.721c-2.479 1.303-5.376-.802-4.903-3.562l2.442-14.236c.188-1.096-.176-2.215-.972-2.991l-10.343-10.082c-2.005-1.955-.899-5.361 1.873-5.764l14.294-2.077c1.101-.16 2.052-.851 2.544-1.848l6.392-12.952c1.24-2.512 4.821-2.512 6.061 0z"/></g></g></g></svg>