<svg xmlns="http://www.w3.org/2000/svg" version="1.1" xmlns:xlink="http://www.w3.org/1999/xlink" width="512" height="512" x="0" y="0" viewBox="0 0 492 492" style="enable-background:new 0 0 512 512" xml:space="preserve"><rect width="492" height="492" fill="#bac8d3" shape="square"></rect><g transform="matrix(1.199999999999999,2.9391523179536437e-16,-2.9391523179536437e-16,1.199999999999999,-49.25193176269485,-49.34795227050756)"><g fill="#fce340" fill-rule="evenodd" clip-rule="evenodd"><path d="m94.127 220.728 6.392 12.952a3.377 3.377 0 0 0 2.544 1.848l14.294 2.077c2.771.403 3.878 3.809 1.873 5.764l-10.343 10.082a3.38 3.38 0 0 0-.972 2.991l2.442 14.236c.473 2.76-2.424 4.865-4.903 3.562l-12.785-6.721a3.382 3.382 0 0 0-3.145 0L76.74 274.24c-2.479 1.303-5.376-.802-4.903-3.562l2.442-14.236a3.378 3.378 0 0 0-.972-2.991l-10.343-10.082c-2.006-1.955-.899-5.361 1.873-5.764l14.294-2.077a3.378 3.378 0 0 0 2.544-1.848l6.392-12.952c1.24-2.512 4.821-2.512 6.06 0zM171.709 220.728l6.392 12.952a3.377 3.377 0 0 0 2.544 1.848l14.294 2.077c2.771.403 3.878 3.809 1.873 5.764l-10.343 10.082a3.38 3.38 0 0 0-.972 2.991l2.442 14.236c.473 2.76-2.424 4.865-4.903 3.562l-12.785-6.721a3.382 3.382 0 0 0-3.145 0l-12.785 6.721c-2.479 1.303-5.376-.802-4.903-3.562l2.442-14.236a3.38 3.38 0 0 0-.972-2.991l-10.343-10.082c-2.005-1.955-.899-5.361 1.873-5.764l14.294-2.077a3.378 3.378 0 0 0 2.544-1.848l6.392-12.952c1.24-2.512 4.821-2.512 6.061 0zM249.29 220.728l6.393 12.952a3.377 3.377 0 0 0 2.544 1.848l14.294 2.077c2.771.403 3.878 3.809 1.873 5.764l-10.343 10.082a3.38 3.38 0 0 0-.972 2.991l2.442 14.236c.473 2.76-2.424 4.865-4.903 3.562l-12.785-6.721a3.382 3.382 0 0 0-3.145 0l-12.785 6.721c-2.479 1.303-5.376-.802-4.903-3.562l2.442-14.236a3.378 3.378 0 0 0-.972-2.991l-10.343-10.082c-2.006-1.955-.899-5.361 1.873-5.764l14.294-2.077a3.378 3.378 0 0 0 2.544-1.848l6.392-12.952c1.239-2.512 4.821-2.512 6.06 0zM326.871 220.728l6.392 12.952a3.377 3.377 0 0 0 2.544 1.848l14.294 2.077c2.771.403 3.878 3.809 1.873 5.764l-10.343 10.082a3.38 3.38 0 0 0-.972 2.991l2.442 14.236c.473 2.76-2.424 4.865-4.903 3.562l-12.785-6.721a3.382 3.382 0 0 0-3.145 0l-12.785 6.721c-2.479 1.303-5.376-.802-4.903-3.562l2.442-14.236a3.38 3.38 0 0 0-.972-2.991l-10.343-10.082c-2.006-1.955-.899-5.361 1.873-5.764l14.294-2.077a3.378 3.378 0 0 0 2.544-1.848l6.392-12.952c1.241-2.512 4.822-2.512 6.061 0zM404.453 220.728l6.392 12.952a3.377 3.377 0 0 0 2.544 1.848l14.294 2.077c2.771.403 3.878 3.809 1.873 5.764l-10.343 10.082a3.38 3.38 0 0 0-.972 2.991l2.442 14.236c.473 2.76-2.424 4.865-4.903 3.562l-12.785-6.721a3.382 3.382 0 0 0-3.145 0l-12.785 6.721c-2.479 1.303-5.376-.802-4.903-3.562l2.442-14.236a3.38 3.38 0 0 0-.972-2.991l-10.343-10.082c-2.005-1.955-.899-5.361 1.873-5.764l14.294-2.077A3.378 3.378 0 0 0 392 233.68l6.392-12.952c1.24-2.512 4.821-2.512 6.061 0z" fill="#fce340" opacity="1" data-original="#fce340"></path></g></g></svg>